<?xml version="1.0" encoding="UTF-8" standalone="no"?>

<svg aria-hidden="true" width="47" height="45" viewBox="0 0 47 45" fill="none" xmlns="http://www.w3.org/2000/svg"><path d="M33.0426 19.6007C32.4209 19.7019 30.819 19.7357 32.2956 20.9722C32.2956 20.9722 32.5677 20.9933 31.838 21.4112C31.1126 21.829 33.4614 22.0822 33.7377 22.386C34.0141 22.6941 31.4105 22.3565 31.4623 23.1246C31.5142 23.8927 31.0133 23.4073 32.7447 25.2136C32.7447 25.2136 31.7041 24.9773 31.5832 25.1208C31.4623 25.2643 33.8586 27.2098 33.8457 27.7627C33.8457 27.7627 33.3578 28.0961 33.1505 27.8049C32.9433 27.5137 31.4926 25.948 31.2594 25.9015C31.0824 25.8678 30.7456 25.948 30.5859 26.2518C30.5859 26.2518 31.2206 27.6951 31.0219 27.7331C30.8233 27.7753 29.8303 27.0916 29.8303 27.0916C29.8303 27.0916 29.1783 27.3702 29.3942 27.9484C29.6058 28.5223 31.3717 30.4847 31.2724 30.6029C31.2724 30.6029 31.1213 30.9237 30.8924 30.9026C30.6636 30.8772 29.4417 28.7164 29.1395 28.632C28.8372 28.5476 29.4892 30.6536 29.4892 30.6536C29.4892 30.6536 28.3882 29.5183 28.0903 29.282C27.7967 29.0456 27.7535 29.5352 27.7535 29.5352L28.073 31.9365C28.073 31.9365 24.6362 26.9313 25.4781 32.8987C25.4781 32.8987 25.4004 33.2364 25.2838 33.2279C25.1716 33.2153 24.4376 31.2528 24.5239 30.7169C24.6103 30.1809 23.9194 32.2066 23.9194 32.2066C23.9194 32.2066 22.8444 28.0243 20.6121 32.3121C20.6121 32.3121 20.4567 30.6915 20.1113 30.413C19.7702 30.1345 19.4852 29.9868 19.3989 30.0374C19.3125 30.088 18.5267 30.8224 18.2159 30.8941C17.9093 30.9659 18.462 29.9235 18.0043 29.6323C18.0043 29.6323 18.0475 29.3411 17.7798 28.9232C17.5121 28.5054 17.2573 28.6616 15.7203 30.2822C15.7203 30.2822 16.3636 28.746 16.3593 28.2142C16.355 27.6825 15.7548 27.5643 15.7548 27.5643C15.7548 27.5643 14.6365 28.3957 14.3127 28.2944C13.9846 28.1931 14.8481 27.1718 14.8654 26.8933C14.8697 26.8047 14.7402 26.8384 14.7402 26.8384C14.7402 26.8384 14.6063 26.7456 13.4837 27.3871L11.6617 28.5181C11.5278 28.4379 11.3508 28.4548 11.4026 28.0328C11.4199 27.9104 14.8049 26.3531 14.6538 26.1885C14.5027 26.0281 13.3715 25.7538 13.3715 25.7538C13.3715 25.7538 14.0796 24.9182 13.868 24.8254C13.6564 24.7367 12.1107 24.6101 12.1107 24.6101C12.1107 24.6101 11.843 24.1965 11.8992 24.2767C11.951 24.3611 13.4103 24.0488 13.4103 24.0488L12.4346 23.3018C12.4346 23.3018 14.8999 22.8798 12.7238 21.5968C11.9164 21.1242 11.0788 20.7992 10.1678 20.6388C12.4907 20.7528 14.0234 20.1746 13.7644 19.3474C13.7644 19.3474 13.691 19.0478 11.3767 18.2206C11.3767 18.2206 11.4415 17.9505 11.5969 17.9125C11.7524 17.8746 14.1573 18.7397 13.9889 18.6005C13.8162 18.4612 12.9354 17.5032 13.0951 17.5116C13.2549 17.5201 14.3861 17.9843 14.7574 17.6425C15.1158 17.3133 15.3403 16.7098 15.5778 16.5789C15.8153 16.4481 14.9474 15.6631 16.0873 16.0261C16.0873 16.0261 16.8601 15.5998 16.2513 14.9077C15.6426 14.2114 13.7126 11.9788 16.8601 14.6756C17.6114 15.3213 19.4982 13.3546 19.3428 12.2869C19.3428 12.2869 20.094 13.0297 20.2538 13.1099C20.4135 13.1901 21.467 13.3124 21.7088 12.9537C21.8211 12.7891 21.3202 11.2698 21.6397 10.5988C21.6397 10.5988 21.7736 10.5861 21.8988 10.7296C22.024 10.8731 22.0413 12.46 22.6112 12.7596C22.6112 12.7596 23.2545 12.3924 23.3625 12.1181C23.4704 11.8438 23.1898 13.8315 25.1154 12.9748C25.1154 12.9748 26.0524 12.1603 26.3244 12.135C26.5921 12.1097 26.1214 13.1014 26.3589 13.4559C26.5964 13.8104 27.3865 14.0468 27.6369 13.6036C27.8874 13.1605 29.092 12.2785 29.187 12.3165C29.2819 12.3544 28.5739 14.1945 28.4961 14.3717C28.3796 14.6334 28.2975 15.0259 28.2975 15.0259C28.2975 15.0259 28.3882 15.5408 29.0488 15.68C29.0488 15.68 30.288 14.971 31.5789 14.051C31.4451 14.2114 31.3069 14.376 31.1687 14.5532C31.1687 14.5532 29.4978 16.2287 29.4978 16.4734C29.5021 16.714 30.0721 17.2584 30.5384 16.9503C31.0047 16.6422 32.1359 16.1865 32.2352 16.2666C32.3302 16.3468 32.5115 16.5705 32.2784 16.7055C32.0452 16.8364 30.7283 17.5074 30.7283 17.5074C30.7283 17.5074 32.2309 17.6087 34.0659 17.2457C32.0798 18.0349 31.3889 19.2335 31.4062 19.3474C31.4667 19.7315 34.5538 18.9507 34.6358 19.1406C35.0848 20.1071 33.6643 19.4994 33.0426 19.6007ZM46.0862 19.6766C46.0689 19.5627 45.7667 19.4572 45.568 19.2926C44.8859 18.7355 42.4507 16.3932 37.6538 16.5452C37.045 16.5621 36.4924 16.6211 35.9915 16.7055C37.0148 16.3806 37.5416 16.1865 37.8481 16.0683C38.2194 15.9248 40.6675 15.1018 41.9844 10.9027C42.0967 10.5439 42.4162 9.67879 42.3341 9.61127C42.2348 9.53108 41.4145 9.67457 40.5812 10.1683C39.7479 10.6663 36.9414 11.0968 36.609 11.1474C36.4147 11.177 35.59 11.0588 34.3595 11.6876C35.7454 10.295 37.2177 8.31986 37.6107 5.54292C37.8006 4.21353 37.7186 3.66912 37.6625 3.67334C37.5804 3.67756 37.5329 3.68178 37.4336 3.71132C37.1228 3.79995 36.8119 4.05738 35.7929 4.71997C34.774 5.38677 33.6902 6.12532 33.6902 6.12532C33.6902 6.12532 34.0616 2.5001 33.945 2.4157C33.8327 2.33551 31.7257 2.35239 28.4961 5.8721C28.4961 5.8721 28.8631 2.85882 28.2587 1.72357C28.2587 1.72357 28.0903 0.900617 27.9608 0.470148C27.896 0.254914 27.7233 0.0270195 27.6931 0.0481209C27.6585 0.0692222 27.3736 0.115645 26.9159 0.630519C26.2035 1.42815 22.8875 2.40725 22.3392 6.59799C21.9247 4.90566 21.0439 2.64359 18.8678 1.4999C17.633 0.322439 17.089 -0.0278441 17.0242 0.00169783C16.9681 0.0312398 16.994 0.550334 16.8083 1.72779C16.5967 3.04874 16.4111 3.46232 16.4111 3.46232C16.4111 3.46232 14.1314 1.50412 14.0753 1.44503C13.9673 1.33953 12.577 5.64421 12.9872 7.79233C12.9872 7.79233 12.2662 7.24369 10.9536 6.58533C9.46402 5.83834 6.95548 5.70751 6.97275 5.82146C7.00297 6.01559 9.08839 9.99953 9.96487 11.3964C9.96487 11.3964 4.34763 10.4511 4.44262 10.7972C4.47284 10.9111 4.61101 11.1263 4.83121 12.0421C4.83121 12.0421 2.6249 11.9957 2.65512 12.173C2.68534 12.3713 4.32604 15.0217 4.45125 15.1651C4.45125 15.1651 2.74579 15.4859 2.38311 15.507C2.14132 15.5323 3.52728 19.263 7.31816 20.1957C7.89241 20.335 8.44506 20.4405 8.97613 20.5122C7.73265 20.4911 6.35533 20.7444 4.77939 21.3141C4.77939 21.3141 3.86406 21.6602 3.38048 22.0358C2.89691 22.4114 0.48767 22.8081 0.371094 23.1499C0.427223 23.4031 3.3114 25.3318 3.3114 25.3318C3.3114 25.3318 1.61889 26.1421 1.50231 26.294C1.4246 26.3995 1.35983 26.4924 1.38142 26.5219C1.40301 26.5515 1.51527 26.6823 1.80886 26.8595C2.48673 27.2689 8.50119 27.8851 8.86819 27.7373C9.23951 27.5939 5.59974 31.5905 5.54361 33.6035C5.54361 33.6035 6.13945 33.6457 6.47622 33.6711C6.73528 33.6922 5.37954 36.1906 5.62565 36.1779C7.26203 36.1104 9.96918 34.5658 10.4787 34.207C10.9881 33.8525 11.6833 33.325 11.8689 33.152C12.0589 32.9789 10.6816 35.3803 11.2472 37.4904C11.2472 37.4904 11.4242 39.1279 11.4372 39.4613C11.4458 39.7905 11.9208 39.7905 11.9164 40.0141C11.9121 40.2842 13.2419 38.9886 13.8723 38.4906C14.5027 37.9926 15.3576 37.0304 15.7721 36.3974C16.1866 35.7643 15.8196 41.3604 15.6512 42.4366C15.5951 42.7826 15.6771 42.8206 15.7332 42.9346C15.7505 42.9683 16.3377 42.4957 16.5233 42.3775C16.7997 42.196 19.6709 38.4273 19.8522 37.482C19.8522 37.482 21.3807 44.0529 21.9031 44.7577C22.0154 44.9096 22.1104 45.0785 22.1881 44.9603C22.3392 44.7282 22.568 44.112 22.7407 44.0614C22.9609 43.9981 23.6086 43.9179 23.9454 42.981C24.2864 42.0441 24.8952 41.1283 25.1845 38.6974C25.1845 38.6974 28.4357 42.7489 28.8588 43.1287C29.0272 43.2806 29.9123 41.8415 30.3009 39.533C30.6938 37.2245 29.8519 34.1226 29.3208 34.0171C29.3208 34.0171 29.1006 33.6753 29.718 33.8905C30.0678 34.0129 31.4235 36.3087 34.5451 38.0559C35.0719 38.3471 36.1858 38.3556 36.1945 38.3345C36.4449 37.6508 33.9968 31.3837 33.9968 31.3837C33.9968 31.3837 34.0572 31.3119 34.5494 31.5103C35.0417 31.7086 39.722 34.667 42.5587 33.2786C43.1329 33 43.1674 32.9409 43.1674 32.9409C43.4913 31.5736 40.9914 28.9908 39.4586 27.8218C39.4586 27.8218 43.4913 27.6614 44.1087 26.6148C44.1087 26.6148 44.8513 26.3531 45.2356 25.834C45.3004 25.7454 44.8038 24.8422 44.2209 24.4498C42.6968 23.4158 42.3687 23.0275 42.3687 23.0275C42.3687 23.0275 42.7961 22.5253 43.4092 22.3354C44.0223 22.1455 46.0128 20.9511 45.4817 20.3603C45.4687 20.3645 46.1077 19.8201 46.0862 19.6766Z" fill="#FFD500"></path></svg>
